<?xml version="1.0" standalone="no"?>
<!DOCTYPE svg PUBLIC "-//W3C//DTD SVG 20010904//EN"
 "http://www.w3.org/TR/2001/REC-SVG-20010904/DTD/svg10.dtd">
<svg version="1.0" xmlns="http://www.w3.org/2000/svg"
 width="1024.000000pt" height="1024.000000pt" viewBox="0 0 1024.000000 1024.000000"
 preserveAspectRatio="xMidYMid meet">

<g transform="translate(0.000000,1024.000000) scale(0.100000,-0.100000)"
fill="#000000" stroke="none">
<path d="M0 5120 l0 -5120 168 0 168 0 -4 36 c-6 47 30 128 76 172 19 18 31
36 28 39 -4 4 -25 9 -48 12 l-41 6 41 29 c41 28 66 30 102 7 12 -8 9 -16 -18
-48 -58 -67 -82 -144 -68 -217 6 -31 11 -36 34 -36 26 0 27 2 28 63 2 111 38
178 117 219 105 53 237 -41 237 -168 0 -27 -7 -62 -15 -78 -8 -15 -15 -30 -15
-32 0 -2 2126 -4 4725 -4 l4725 0 0 5120 0 5120 -5120 0 -5120 0 0 -5120z
m6070 4040 c0 -5 -5 -10 -11 -10 -5 0 -7 5 -4 10 3 6 8 10 11 10 2 0 4 -4 4
-10z m-203 -6 c-3 -3 -12 -4 -19 -1 -8 3 -5 6 6 6 11 1 17 -2 13 -5z m73 2 c0
-3 -4 -8 -10 -11 -5 -3 -10 -1 -10 4 0 6 5 11 10 11 6 0 10 -2 10 -4z m48 -21
c-1 -14 -6 -25 -9 -25 -4 0 -10 -8 -12 -17 -3 -10 -4 -2 -4 17 2 29 11 49 24
50 2 0 2 -11 1 -25z m-83 -14 c-6 -5 -25 10 -25 20 0 5 6 4 14 -3 8 -7 12 -15
11 -17z m-58 7 c6 16 23 5 23 -16 0 -10 -3 -13 -8 -7 -9 13 -42 16 -42 4 0 -5
-4 -9 -10 -9 -12 0 -9 22 5 32 5 4 13 2 18 -5 7 -9 10 -9 14 1z m-77 -8 c0 -5
-8 -10 -17 -10 -15 0 -16 2 -3 10 19 12 20 12 20 0z m187 4 c-3 -3 -12 -4 -19
-1 -8 3 -5 6 6 6 11 1 17 -2 13 -5z m-17 -25 c0 -3 -14 -6 -32 -7 -22 0 -28 2
-18 8 15 10 50 9 50 -1z m180 -3 c0 -2 -7 -7 -16 -10 -8 -3 -12 -2 -9 4 6 10
25 14 25 6z m-270 -34 c3 -3 -5 -3 -17 0 -12 3 -24 1 -27 -6 -2 -6 -5 -1 -5
12 -1 20 1 22 22 11 12 -6 24 -14 27 -17z m58 1 c-10 -2 -18 -8 -18 -12 0 -4
-9 -7 -19 -8 -14 -1 -18 3 -14 13 3 8 18 14 37 13 17 -1 23 -3 14 -6z m77 -3
c-3 -5 1 -10 10 -10 9 0 13 -4 10 -10 -4 -6 -13 -5 -25 2 -19 12 -18 28 1 28
6 0 7 -4 4 -10z m74 -8 c-6 -10 -25 -26 -43 -35 -28 -16 -27 -14 9 17 46 41
49 42 34 18z m-118 -6 c-10 -11 -8 -16 9 -21 11 -3 17 -11 14 -17 -4 -7 -9 -6
-14 2 -10 16 -30 4 -30 -17 0 -12 6 -14 28 -8 22 5 25 4 15 -6 -16 -16 -17
-29 -2 -29 5 0 7 5 4 10 -5 9 9 14 18 8 2 -2 12 4 22 12 11 8 16 10 12 3 -9
-14 2 -45 14 -37 19 12 30 -8 12 -23 -17 -13 -16 -13 5 -3 12 6 20 15 17 21
-4 5 9 10 27 10 32 2 32 2 -7 9 l-40 7 35 1 c19 1 41 -2 49 -7 13 -8 13 -12 0
-28 -13 -16 -12 -17 2 -5 9 7 25 9 34 5 14 -5 16 -3 10 8 -7 11 -6 12 6 2 18
-14 44 -11 86 10 23 12 30 12 40 2 6 -7 9 -16 6 -19 -4 -3 -1 -6 5 -6 7 0 12
-7 12 -16 0 -8 5 -12 10 -9 6 3 10 -2 10 -12 1 -17 2 -17 15 1 15 20 15 20 17
0 0 -10 1 -25 1 -32 -1 -7 5 -11 12 -8 14 5 15 -11 2 -31 -5 -8 -3 -13 4 -13
7 0 4 -7 -7 -16 -10 -8 -14 -13 -8 -10 7 3 17 0 22 -7 8 -9 6 -16 -9 -25 -11
-7 -19 -8 -19 -2 0 5 5 10 12 10 6 0 9 2 7 5 -6 5 -62 -11 -93 -27 -13 -7 -21
-6 -27 4 -8 12 -13 4 -10 -15 1 -5 -2 -6 -7 -3 -5 3 -25 -9 -46 -26 -22 -18
-44 -28 -55 -25 -10 2 -27 0 -37 -6 -18 -10 -18 -9 -1 10 9 11 17 24 17 29 0
5 -4 3 -8 -4 -6 -9 -14 -7 -30 8 -14 14 -22 16 -22 8 0 -7 -10 -19 -22 -27
-21 -13 -22 -13 -9 2 9 12 10 17 2 17 -7 0 -9 5 -6 10 3 6 2 10 -4 10 -5 0
-12 -6 -14 -12 -4 -10 -8 -9 -16 2 -8 11 -6 18 6 27 15 12 15 13 0 19 -9 3
-14 11 -10 17 3 6 1 7 -6 3 -6 -4 -9 -11 -6 -16 3 -5 0 -12 -6 -16 -8 -4 -9
-3 -5 4 4 7 1 12 -10 12 -13 0 -11 4 7 20 l24 21 -33 -16 c-19 -9 -32 -22 -29
-29 3 -6 -3 -13 -14 -13 -12 -1 -16 3 -12 13 7 18 -5 18 -24 -1 -14 -14 -17
-14 -33 0 -12 11 -19 13 -22 5 -2 -8 -16 -5 -41 9 -45 25 -48 26 -41 6 4 -8 1
-15 -5 -15 -6 0 -11 4 -11 8 0 4 -17 9 -37 11 -68 4 -73 5 -73 14 0 4 -4 5
-10 2 -5 -3 -11 2 -11 12 -1 17 -2 17 -6 1 -5 -18 -23 -25 -23 -9 0 5 -6 9
-12 8 -30 -1 -48 4 -48 12 0 4 12 6 28 4 l27 -5 -30 22 c-26 19 -27 21 -6 15
16 -5 21 -4 17 4 -4 6 -2 11 3 11 6 0 11 -4 11 -9 0 -16 28 -20 46 -6 17 12
16 13 -10 8 -28 -6 -28 -6 -10 16 19 22 30 28 19 11 -9 -15 11 -12 24 3 6 8 7
18 3 22 -4 5 -1 5 7 0 10 -6 21 0 36 19 12 15 32 28 46 28 13 1 30 6 37 11 8
6 17 5 26 -2 10 -8 16 -8 25 2 6 8 9 16 6 19 -11 11 21 27 35 18 13 -8 13 -10
0 -10 -9 0 -16 -8 -16 -19 0 -11 5 -17 13 -14 7 3 10 9 7 15 -3 5 0 9 7 7 8
-1 21 -1 29 0 13 1 13 2 0 11 -13 8 -12 10 3 10 19 0 24 19 5 21 -10 1 11 10
41 18 2 1 -2 -5 -8 -13z m-116 -19 c-8 -13 -12 -27 -8 -30 3 -4 1 -7 -5 -7
-16 0 -26 20 -10 21 10 0 10 2 1 6 -18 7 -16 21 5 26 31 8 33 7 17 -16z m241
-44 c-3 -4 -6 -1 -6 5 0 7 -7 9 -17 5 -15 -6 -16 -5 -3 9 13 14 16 14 23 1 5
-8 6 -17 3 -20z m-556 -157 c0 -3 -4 -8 -10 -11 -5 -3 -10 -1 -10 4 0 6 5 11
10 11 6 0 10 -2 10 -4z m295 -66 c8 -13 -5 -13 -25 0 -13 8 -13 10 2 10 9 0
20 -4 23 -10z m-245 -244 c0 -2 -8 -10 -17 -17 -16 -13 -17 -12 -4 4 13 16 21
21 21 13z m43 -49 c-3 -5 -12 -6 -20 -3 -8 3 -12 2 -8 -3 3 -5 -1 -12 -7 -14
-7 -3 3 -4 22 -1 19 2 29 2 22 -2 -6 -3 -9 -11 -6 -16 4 -7 2 -8 -4 -4 -6 3
-28 7 -49 8 -33 1 -35 2 -15 11 12 6 22 16 22 23 0 8 10 13 24 12 14 -1 22 -6
19 -11z m549 -66 c-1 -7 2 -10 8 -6 11 7 16 -3 25 -55 4 -19 9 -47 12 -62 l5
-28 20 23 c18 20 19 20 13 2 -17 -48 -17 -52 7 -58 13 -4 47 -7 77 -7 70 0 60
-10 -16 -17 -61 -5 -83 -15 -62 -28 8 -6 10 -4 4 5 -5 9 -4 11 4 6 6 -4 9 -11
6 -16 -9 -14 137 -300 171 -337 17 -18 28 -33 24 -33 -4 0 1 -17 11 -37 25
-51 37 -129 18 -118 -7 5 -40 9 -74 10 -33 1 -76 7 -95 13 -64 21 -137 22
-181 0 -22 -10 -37 -23 -34 -27 8 -14 -46 -23 -61 -10 -11 9 -14 8 -14 -5 0
-9 -5 -16 -11 -16 -6 0 -8 9 -4 20 5 16 3 19 -12 13 -17 -6 -17 -5 -2 13 9 10
15 27 14 37 -3 18 29 37 68 40 9 1 17 5 17 9 0 4 10 8 23 8 30 0 70 29 63 46
-3 8 -1 14 4 14 6 0 10 -6 11 -12 0 -10 2 -10 6 -1 2 7 -6 23 -19 35 -13 13
-19 20 -14 16 22 -18 28 -6 8 15 -12 13 -22 28 -22 34 0 6 -6 16 -14 22 -11 9
-15 9 -19 -1 -4 -8 -6 -7 -6 5 -1 9 4 17 9 17 7 0 7 6 0 20 -8 15 -8 20 2 20
9 0 9 3 -2 10 -8 5 -11 10 -6 10 5 0 1 9 -9 20 -10 11 -15 26 -11 36 4 10 1
21 -6 26 -11 8 -11 11 0 15 10 4 9 9 -5 19 -17 13 -17 14 2 7 18 -6 18 -5 6
10 -8 10 -11 20 -7 24 3 3 -1 17 -9 30 -9 13 -12 23 -8 23 5 0 8 14 8 30 0 17
-4 30 -9 30 -6 0 -5 5 2 12 7 7 12 20 12 30 0 10 6 18 13 18 8 0 7 3 -3 10
-12 8 -12 10 4 16 14 5 15 9 4 15 -9 6 -10 9 -1 9 7 0 10 7 7 15 -6 15 11 22
19 8 2 -5 3 -3 1 4 -1 6 0 14 4 17 9 10 27 0 24 -13z m-579 -18 c-7 -2 -21 -2
-30 0 -10 3 -4 5 12 5 17 0 24 -2 18 -5z m965 -8 c-3 -3 -25 -8 -49 -11 -24
-3 -56 -9 -71 -14 -16 -5 -28 -7 -28 -5 0 2 12 11 28 19 24 14 133 23 120 11z
m-998 -126 c0 -6 -4 -7 -10 -4 -5 3 -10 11 -10 16 0 6 5 7 10 4 6 -3 10 -11
10 -16z m291 -31 c21 -51 -3 -52 -27 -2 -29 59 -29 57 -4 42 11 -7 24 -25 31
-40z m589 13 c0 -10 -94 0 -105 11 -6 6 -4 7 7 3 9 -4 25 -2 34 3 17 10 64 -3
64 -17z m-835 -12 c34 -13 -31 -10 -105 6 l-65 13 75 -5 c41 -3 84 -9 95 -14z
m-162 -6 c-7 -2 -19 -2 -25 0 -7 3 -2 5 12 5 14 0 19 -2 13 -5z m50 -10 c-7
-2 -19 -2 -25 0 -7 3 -2 5 12 5 14 0 19 -2 13 -5z m178 -6 c-14 -14 -161 -13
-161 1 0 4 38 7 85 7 46 0 80 -4 76 -8z m147 -15 c27 -26 29 -32 25 -86 -3
-44 -1 -56 8 -50 9 5 10 2 6 -10 -5 -12 -2 -16 10 -14 9 2 18 -3 21 -11 3 -10
-1 -13 -14 -9 -11 3 -25 -1 -32 -8 -16 -18 -15 -27 3 -20 8 3 15 2 15 -2 0
-11 -52 -32 -64 -26 -6 3 -4 0 4 -8 18 -16 24 -38 10 -38 -5 0 -10 5 -10 12 0
6 -3 9 -6 6 -3 -4 -1 -15 5 -26 8 -15 7 -21 -4 -25 -14 -6 -17 -47 -3 -47 4 0
8 -5 8 -11 0 -6 -6 -9 -12 -6 -8 3 -14 -5 -14 -19 -1 -13 2 -24 8 -24 5 0 6 5
3 10 -10 16 1 11 16 -7 8 -9 9 -14 3 -11 -5 4 -15 -6 -21 -23 -6 -16 -7 -27
-2 -24 5 4 6 -1 3 -9 -3 -9 -15 -16 -25 -16 -10 0 -19 -5 -19 -11 0 -6 7 -9
15 -5 8 3 15 1 15 -4 0 -6 -4 -10 -9 -10 -5 0 -7 -10 -3 -22 3 -14 2 -19 -6
-14 -7 4 -12 3 -12 -3 0 -5 9 -13 21 -16 15 -5 18 -10 10 -18 -17 -17 -13 -37
7 -38 15 -1 15 -2 0 -6 -14 -3 -15 -9 -6 -35 8 -24 8 -32 -3 -39 -10 -6 -11
-9 -1 -9 6 0 12 -7 12 -15 0 -8 -6 -15 -12 -15 -8 -1 -5 -7 6 -15 10 -8 22
-12 27 -10 4 3 5 -5 1 -17 -4 -15 -2 -19 7 -14 7 5 18 0 27 -10 14 -18 14 -18
7 0 -6 18 -5 18 19 2 13 -9 28 -13 31 -9 4 3 7 1 7 -7 0 -10 3 -10 15 0 12 10
15 10 15 0 0 -8 9 -11 25 -8 13 3 22 2 20 -3 -3 -4 4 -10 15 -14 11 -4 18 -11
14 -16 -3 -6 0 -17 8 -26 11 -14 10 -15 -10 -9 -17 6 -22 3 -22 -9 0 -12 -6
-16 -18 -13 -19 5 -45 -15 -34 -27 4 -4 -5 -5 -20 -1 -28 6 -39 -7 -15 -18 6
-3 -3 -4 -21 -1 -27 3 -32 0 -28 -12 4 -9 1 -13 -6 -10 -7 2 -12 14 -11 26 2
11 -2 21 -7 21 -10 0 -14 -14 -11 -39 2 -7 -3 -10 -9 -6 -6 4 -9 13 -6 20 2 7
-2 16 -10 19 -12 4 -14 1 -9 -15 6 -18 5 -19 -14 -7 -12 7 -21 18 -21 25 0 7
-7 13 -16 13 -9 0 -12 -5 -8 -12 4 -7 3 -8 -4 -4 -6 4 -8 14 -5 23 4 10 2 14
-4 10 -13 -8 -43 1 -43 13 0 5 8 10 18 12 14 3 13 5 -6 10 -12 3 -20 3 -17 -2
11 -18 -23 -17 -38 1 -12 14 -13 19 -4 19 7 0 22 7 33 15 18 14 18 14 -3 9
-12 -3 -30 -1 -40 5 -13 8 -14 11 -3 10 39 -4 42 3 10 20 -19 11 -33 21 -30
23 2 1 -8 15 -23 30 -24 24 -30 26 -50 15 -12 -6 -25 -16 -29 -22 -5 -6 -8 -5
-8 3 0 8 9 16 20 19 11 3 17 9 14 14 -3 5 4 9 15 9 14 0 21 6 21 18 0 27 -10
33 -32 21 -11 -6 -23 -7 -26 -3 -4 4 -1 9 6 11 6 3 12 12 12 21 0 13 -3 12
-19 -4 -10 -10 -16 -25 -13 -31 2 -7 0 -13 -5 -13 -5 0 -10 14 -11 31 -1 17 1
28 6 25 4 -2 9 4 9 15 1 10 -4 19 -10 19 -7 0 -3 8 8 17 l20 16 -20 -8 c-11
-4 -28 -8 -37 -9 -9 0 -14 -5 -10 -11 3 -5 -2 -4 -11 4 -12 10 -14 17 -7 26 8
9 6 14 -6 19 -25 10 -41 7 -24 -5 13 -9 13 -10 0 -6 -8 2 -15 10 -16 18 -2 34
-5 39 -18 39 -8 0 -17 4 -20 8 -3 5 8 8 24 7 16 -1 27 2 24 7 -3 4 -14 8 -25
8 -12 0 -19 7 -19 20 0 22 -15 27 -23 8 -4 -10 -6 -10 -6 -1 -1 6 3 14 8 17
14 9 41 -5 41 -21 0 -8 4 -12 10 -8 14 9 0 34 -29 51 -22 13 -23 14 -3 9 12
-4 22 -4 22 -1 0 9 -62 36 -71 30 -5 -3 -16 1 -24 10 -11 11 -12 16 -2 19 7 4
6 6 -4 6 -9 1 -19 7 -22 15 -3 7 -19 16 -37 19 -20 5 -29 11 -24 18 4 8 3 9
-5 5 -6 -4 -19 0 -28 9 -13 14 -14 18 -3 25 10 6 7 10 -14 16 -17 4 -25 11
-22 20 3 8 0 14 -7 14 -7 0 -21 12 -31 27 -11 14 -14 23 -8 19 7 -4 12 -1 12
7 0 8 7 28 15 43 12 24 15 26 16 9 1 -16 2 -16 6 -3 5 19 33 33 33 17 0 -6 7
-9 15 -5 8 3 15 1 15 -4 0 -6 8 -10 19 -10 10 0 24 -6 30 -14 7 -8 25 -12 46
-10 21 2 40 -3 49 -12 17 -16 30 -19 21 -4 -3 6 -1 10 4 10 6 0 11 -5 11 -11
0 -7 12 -9 34 -5 19 4 37 2 40 -3 8 -13 65 -41 85 -42 12 0 11 -3 -4 -10 -17
-8 -16 -9 7 -6 15 2 33 0 40 -4 9 -6 8 -9 -7 -9 -11 0 -27 -5 -35 -11 -13 -9
-13 -10 0 -8 8 1 32 -1 53 -5 33 -7 36 -10 25 -24 -11 -14 -9 -14 14 1 34 22
44 22 27 0 -13 -15 -12 -15 9 -2 12 8 22 17 22 21 0 5 7 8 15 8 8 0 15 7 15
15 0 8 8 19 18 24 9 5 26 24 36 43 17 28 17 31 3 19 -10 -8 -20 -11 -24 -7 -3
3 -2 6 4 6 6 0 13 9 16 21 3 12 9 19 14 16 4 -3 14 1 21 9 8 9 9 14 2 14 -6 0
-8 6 -5 13 4 6 -3 1 -14 -12 -12 -13 -24 -21 -28 -17 -9 9 24 43 57 56 26 11
28 14 18 35 -6 13 -14 24 -17 23 -19 -2 -24 4 -11 12 22 14 25 13 58 -18z
m-38 -32 c0 -5 -4 -10 -10 -10 -5 0 -10 5 -10 10 0 6 5 10 10 10 6 0 10 -4 10
-10z m-100 -14 c0 -2 -7 -7 -16 -10 -8 -3 -12 -2 -9 4 6 10 25 14 25 6z m-123
-22 c-3 -3 -12 -4 -19 -1 -8 3 -5 6 6 6 11 1 17 -2 13 -5z m88 -3 c3 -5 2 -12
-3 -15 -5 -3 -9 1 -9 9 0 17 3 19 12 6z m55 -5 c-13 -17 -146 -86 -152 -80 -3
2 -22 -5 -43 -16 -21 -11 -43 -16 -48 -13 -7 4 -6 8 3 11 8 2 29 10 47 18 17
8 37 14 45 14 15 0 127 56 143 71 14 14 19 11 5 -5z m-100 -16 c0 -5 -7 -7
-15 -4 -8 4 -15 8 -15 10 0 2 7 4 15 4 8 0 15 -4 15 -10z m-70 -10 c-34 -11
-60 -11 -35 0 11 5 29 8 40 8 16 0 15 -2 -5 -8z m14 -81 c-31 -12 -40 -9 -20
6 10 8 24 11 29 8 6 -4 2 -10 -9 -14z m-197 -365 c-3 -3 -12 -4 -19 -1 -8 3
-5 6 6 6 11 1 17 -2 13 -5z m101 -86 c-3 -7 -13 -15 -24 -17 -16 -3 -17 -1 -5
13 16 19 34 21 29 4z m1032 -60 c-25 -23 -39 -38 -31 -33 9 5 12 4 7 -3 -4 -7
-3 -20 3 -29 6 -12 5 -20 -5 -28 -10 -7 -11 -14 -3 -25 9 -12 10 -12 5 4 -6
16 -4 17 9 6 12 -10 13 -15 4 -21 -7 -4 -9 -14 -6 -23 11 -29 0 -17 -33 33
-17 28 -36 51 -42 53 -19 7 1 27 51 52 26 14 53 32 60 40 8 9 16 16 20 16 3
-1 -14 -19 -39 -42z m-958 -20 c-6 -6 -15 -8 -19 -4 -4 4 -1 11 7 16 19 12 27
3 12 -12z m508 -163 c5 -27 30 -49 30 -26 0 6 -6 11 -12 11 -7 0 -5 5 6 11 19
11 37 -2 35 -26 0 -5 -3 -5 -6 2 -3 8 -13 3 -30 -15 -13 -15 -21 -21 -17 -13
4 9 0 19 -11 27 -10 8 -16 17 -12 20 3 4 2 16 -4 26 -9 16 -8 19 3 16 7 -3 15
-17 18 -33z m204 17 c3 7 4 3 2 -9 -2 -13 2 -24 12 -28 14 -5 14 -7 2 -15 -11
-7 -12 -10 -2 -10 7 0 10 -4 7 -10 -3 -5 0 -10 7 -10 8 -1 6 -6 -6 -15 -15
-11 -16 -15 -5 -15 8 0 21 6 28 13 11 10 11 8 2 -10 -12 -24 -2 -37 23 -27 19
7 21 24 4 24 -8 0 -6 5 4 11 10 5 15 16 12 24 -4 8 -1 15 6 15 6 0 9 3 7 8 -3
4 1 13 9 20 12 11 14 10 14 -6 0 -11 7 -25 15 -32 8 -6 17 -22 21 -33 3 -12
18 -37 32 -56 22 -30 23 -33 6 -26 -30 13 -68 16 -81 8 -6 -5 -13 -22 -16 -38
-2 -17 -8 -30 -13 -29 -33 4 -54 19 -59 45 -4 18 -13 29 -24 29 -21 0 -144
-41 -151 -50 -6 -8 -44 -23 -46 -18 -1 2 -10 -4 -20 -14 -11 -9 -36 -21 -56
-26 -36 -10 -37 -9 -28 9 6 10 8 19 4 19 -3 0 -1 7 6 15 10 12 16 13 27 4 11
-10 12 -8 7 6 -5 13 -4 16 4 11 7 -4 12 -3 12 3 0 5 -7 14 -15 18 -9 5 2 8 31
9 24 0 50 6 57 14 10 10 9 11 -3 5 -13 -8 -13 -7 -1 9 11 13 16 14 22 4 6 -9
10 -8 15 5 5 15 9 15 22 5 13 -11 14 -10 3 10 -7 14 -8 22 -1 22 5 0 10 -5 10
-12 0 -6 3 -9 6 -6 3 4 1 15 -4 25 -6 11 -7 25 -2 33 6 10 9 7 12 -10 1 -13
10 -25 18 -28 12 -4 13 -2 3 9 -17 18 -16 29 3 29 8 0 13 4 9 9 -3 5 4 12 15
16 16 5 18 10 10 25 -14 26 -12 34 4 21 11 -9 15 -9 20 1z m-564 -93 c17 -13
18 -17 5 -10 -33 17 -51 31 -40 31 6 0 21 -10 35 -21z m442 -11 c-9 -9 -12 -7
-12 12 0 19 3 21 12 12 9 -9 9 -15 0 -24z m-492 2 c0 -5 -2 -10 -4 -10 -3 0
-8 5 -11 10 -3 6 -1 10 4 10 6 0 11 -4 11 -10z m343 -10 c-4 -14 0 -20 11 -20
9 0 16 -5 16 -10 0 -7 -7 -7 -20 0 -11 6 -25 8 -30 5 -14 -9 -12 19 2 33 18
18 27 15 21 -8z m61 -15 c-4 -8 -8 -15 -10 -15 -2 0 -4 7 -4 15 0 8 4 15 10
15 5 0 7 -7 4 -15z m-111 -22 c-7 -2 -21 -2 -30 0 -10 3 -4 5 12 5 17 0 24 -2
18 -5z m37 -7 c0 -2 -7 -7 -16 -10 -8 -3 -12 -2 -9 4 6 10 25 14 25 6z m-40
-20 c0 -3 -4 -8 -10 -11 -5 -3 -10 -1 -10 4 0 6 5 11 10 11 6 0 10 -2 10 -4z
m494 -225 c22 -24 31 -84 16 -107 -10 -16 -10 -15 -5 11 4 22 3 26 -5 15 -5
-8 -10 -27 -10 -42 0 -16 -5 -28 -11 -28 -5 0 -7 6 -4 13 4 6 1 5 -7 -4 -13
-15 -76 -18 -98 -4 -6 3 -10 1 -10 -4 0 -6 -16 -9 -37 -7 -38 3 -56 8 -103 29
-14 6 -28 10 -32 9 -4 -1 -12 7 -18 18 -6 11 -16 17 -25 14 -10 -4 -15 0 -15
12 0 14 -3 15 -12 6 -16 -16 -28 -15 -28 3 0 12 -4 13 -19 6 -15 -9 -20 -7
-24 11 -7 27 2 45 14 27 7 -12 9 -12 9 0 0 7 6 11 15 8 8 -4 17 -1 21 5 4 7 9
6 15 -3 7 -11 9 -11 9 -1 0 7 5 10 10 7 6 -3 16 -3 23 2 6 4 53 6 102 5 50 -1
113 2 140 7 72 13 70 13 89 -8z m-514 -41 c0 -5 -5 -10 -11 -10 -5 0 -7 5 -4
10 3 6 8 10 11 10 2 0 4 -4 4 -10z m50 -10 c0 -5 -5 -10 -11 -10 -5 0 -7 5 -4
10 3 6 8 10 11 10 2 0 4 -4 4 -10z m2063 -1724 c52 -21 94 -77 107 -141 8 -36
8 -61 2 -67 -5 -5 -31 -8 -58 -6 -46 3 -48 5 -56 38 -18 71 -96 96 -137 44
-46 -59 -20 -114 110 -235 120 -110 149 -156 156 -243 8 -90 -26 -163 -92
-202 -131 -77 -294 -13 -325 128 -7 29 -10 67 -8 83 3 30 4 30 63 30 l60 0 5
-54 c7 -70 44 -106 99 -97 52 8 74 40 69 98 -6 60 -33 96 -142 188 -110 94
-141 148 -141 245 1 99 46 173 120 194 46 14 132 12 168 -3z m943 -1 c53 -15
90 -48 120 -105 17 -32 19 -61 19 -315 l0 -280 -28 -47 c-50 -86 -132 -121
-231 -99 -65 15 -108 47 -139 105 -21 39 -22 52 -22 316 0 274 0 276 25 324
28 55 58 80 116 101 51 18 79 18 140 0z m-2128 -72 l3 -63 -111 0 -110 0 0
-110 0 -110 85 0 85 0 0 -65 0 -65 -85 0 -85 0 0 -112 0 -113 112 0 113 0 3
-62 3 -63 -181 0 -180 0 0 408 c0 225 3 412 7 416 4 3 81 5 172 4 l166 -3 3
-62z m220 55 c12 -15 192 -462 192 -477 0 -5 3 -12 8 -14 4 -3 7 108 7 246 l0
252 60 0 60 0 3 -413 2 -413 -62 3 -63 3 -107 265 -107 265 -1 -267 0 -268
-60 0 -60 0 0 415 0 415 59 0 c35 0 63 -5 69 -12z m562 -403 l0 -415 -60 0
-60 0 0 415 0 415 60 0 60 0 0 -415z m1015 350 l0 -60 -67 -3 -68 -3 0 -349 0
-350 -65 0 -65 0 0 350 0 349 -72 3 -73 3 -3 48 c-6 82 -18 78 210 75 l203 -3
0 -60z m830 54 c57 -16 99 -51 126 -106 19 -39 24 -64 24 -133 -1 -98 -21
-149 -79 -197 l-34 -28 59 -159 c32 -87 61 -167 65 -178 5 -18 1 -19 -62 -16
l-68 3 -59 173 c-55 158 -62 172 -83 172 l-24 0 0 -175 0 -175 -65 0 -65 0 0
415 0 415 113 0 c61 0 130 -5 152 -11z m585 -54 l0 -65 -110 0 -110 0 0 -105
0 -104 88 -3 87 -3 3 -62 3 -63 -91 0 -90 0 0 -115 0 -114 113 -3 112 -3 0
-60 0 -60 -172 -3 -173 -2 0 415 0 415 170 0 170 0 0 -65z m-3783 40 c65 -19
107 -66 129 -142 32 -110 3 -231 -69 -289 l-33 -26 57 -151 c83 -223 82 -198
4 -195 l-68 3 -57 165 c-53 153 -59 165 -84 168 l-26 3 0 -170 0 -171 -65 0
-65 0 0 410 0 410 113 0 c72 0 132 -6 164 -15z m-4 -1637 c9 -6 9 -8 0 -8 -10
0 -13 -27 -13 -99 0 -55 -4 -102 -8 -105 -5 -3 -20 -7 -35 -10 -15 -2 -32 -8
-39 -12 -8 -5 -9 -2 -2 12 5 10 10 128 12 262 2 203 5 242 17 242 8 0 23 12
32 27 18 27 18 24 21 -137 2 -116 6 -166 15 -172z m460 262 c-3 -19 -9 -46
-14 -60 -4 -14 -11 -74 -13 -134 l-5 -110 -49 -49 -50 -50 -4 48 c-3 39 0 49
13 52 21 6 25 28 28 133 2 74 0 82 -21 100 -14 11 -33 17 -47 15 -23 -4 -23
-2 10 27 21 20 47 33 67 35 42 3 51 9 64 41 10 25 11 26 18 7 4 -11 5 -36 3
-55z m-341 -162 c-3 -183 -8 -208 -41 -208 -13 0 -12 4 5 18 15 11 22 28 22
52 0 19 -3 28 -6 20 -3 -8 -10 -18 -16 -22 -8 -5 -7 -8 2 -8 6 0 12 -5 12 -11
0 -5 -4 -7 -10 -4 -5 3 -10 2 -10 -2 0 -5 -8 -13 -17 -19 -17 -10 -18 -1 -15
154 3 162 4 167 28 189 47 44 49 37 46 -159z m453 72 c-3 -5 -12 -10 -18 -10
-7 0 -6 4 3 10 19 12 23 12 15 0z m-723 -162 c-7 -7 -12 -22 -12 -35 0 -13 -5
-23 -11 -23 -6 0 -3 -7 5 -16 30 -29 10 -161 -25 -165 -5 -1 -13 -2 -18 -3 -5
0 -13 -5 -18 -10 -4 -5 -3 -6 3 -3 8 4 10 -8 7 -41 -4 -38 0 -54 19 -82 40
-59 95 -73 196 -49 64 15 227 95 268 131 19 17 34 28 34 24 0 -10 -62 -76 -72
-76 -5 0 -47 -25 -92 -55 -153 -101 -267 -128 -339 -80 -54 37 -69 74 -68 163
1 69 3 76 36 114 19 23 32 44 30 49 -3 4 -1 10 4 13 5 3 9 26 9 50 -1 54 19
106 40 106 12 0 13 -3 4 -12z m25 -95 c-3 -10 -5 -4 -5 12 0 17 2 24 5 18 2
-7 2 -21 0 -30z m-5324 -4 c12 -6 32 -21 44 -32 l23 -20 55 27 c66 32 87 26
116 -37 41 -91 17 -171 -69 -229 -87 -58 -87 -57 -42 -87 78 -53 108 -114 120
-244 11 -110 28 -141 75 -135 39 4 36 -6 -6 -28 -41 -21 -121 -22 -152 -1 -28
18 -37 53 -37 139 0 92 -28 197 -60 230 -30 30 -58 36 -65 16 -3 -7 -13 -69
-23 -138 l-18 -124 -58 -12 c-62 -12 -136 -42 -136 -55 0 -4 17 -1 38 8 29 12
55 14 122 8 47 -4 102 -8 123 -9 20 0 37 -1 37 -2 0 0 -18 -19 -40 -42 -36
-39 -41 -41 -67 -31 -43 16 -196 23 -232 11 -17 -6 -31 -8 -31 -5 0 21 59 87
92 104 27 14 38 26 38 42 0 12 21 152 47 310 53 317 53 313 -15 303 -29 -4
-32 -3 -22 10 24 29 106 42 143 23z m5867 -40 c0 -6 -4 -8 -9 -4 -5 3 -13 1
-16 -5 -4 -6 -3 -10 2 -9 22 4 24 -3 7 -23 -19 -21 -19 -21 1 -15 20 7 20 7 1
-8 -11 -8 -23 -15 -27 -15 -3 0 -4 -11 -1 -25 2 -14 8 -22 13 -19 5 3 6 -2 3
-10 -5 -12 -10 -10 -29 10 -20 22 -22 29 -13 67 5 23 19 50 31 59 22 17 37 15
37 -3z m-75 -159 c-6 -9 14 -14 42 -11 6 1 14 -3 18 -9 7 -11 -27 -13 -63 -4
-18 5 -20 9 -11 20 13 16 23 19 14 4z m-461 -15 c-4 -8 -8 -15 -10 -15 -2 0
-4 7 -4 15 0 8 4 15 10 15 5 0 7 -7 4 -15z m650 -37 c9 -12 15 -36 15 -53 -1
-28 -2 -27 -9 8 -9 46 -16 54 -55 60 l-30 4 32 2 c23 1 36 -5 47 -21z m33
-150 c-3 -8 -6 -5 -6 6 -1 11 2 17 5 13 3 -3 4 -12 1 -19z m-148 -104 c10 -9
-35 -3 -49 6 -11 8 -7 9 15 4 17 -4 32 -8 34 -10z m186 -15 c11 -16 1 -19 -13
-3 -7 8 -8 14 -3 14 5 0 13 -5 16 -11z m15 -39 c0 -5 -4 -10 -10 -10 -5 0 -10
5 -10 10 0 6 5 10 10 10 6 0 10 -4 10 -10z m-6175 -530 c34 -22 104 -27 123
-8 9 9 12 9 12 -3 0 -9 -11 -26 -25 -39 -37 -34 -44 -69 -54 -257 -7 -150 -12
-178 -32 -220 -20 -39 -34 -53 -77 -74 -66 -32 -92 -55 -43 -38 29 10 43 8 98
-11 35 -12 66 -21 68 -18 18 18 37 151 46 318 5 112 16 217 24 247 26 91 90
140 125 97 11 -12 11 -18 -2 -31 -15 -14 -18 -14 -34 5 -10 12 -21 19 -26 16
-4 -3 -5 -67 -2 -142 8 -163 -8 -340 -37 -417 -15 -41 -34 -66 -73 -100 -29
-25 -60 -45 -68 -45 -9 0 -41 12 -72 26 -58 26 -85 26 -118 -4 -29 -25 -20 3
10 31 15 14 32 31 37 37 6 6 22 21 38 33 33 27 47 90 47 218 l0 89 -31 0 c-17
0 -40 -5 -52 -12 -41 -22 3 22 58 57 39 26 58 48 89 105 34 64 36 71 18 66
-13 -4 -47 3 -87 19 -56 23 -68 25 -83 14 -14 -11 -14 -10 1 8 16 18 72 52 87
53 3 0 19 -9 35 -20z m-19 -1001 c16 -17 46 -40 67 -50 37 -19 38 -19 65 -1
71 49 71 39 0 -15 -56 -42 -148 -131 -148 -143 0 -4 37 -23 83 -41 96 -40 162
-98 172 -152 12 -63 -11 -115 -83 -187 -37 -36 -83 -77 -102 -90 -27 -18 -22
-9 26 41 81 84 94 106 94 152 0 71 -47 112 -195 171 l-87 34 -15 -36 c-21 -49
-10 -62 78 -94 170 -63 182 -125 44 -238 l-71 -58 -64 34 c-35 19 -79 48 -97
66 l-33 32 -25 -24 c-14 -13 -25 -19 -25 -13 0 15 52 58 90 74 16 8 30 17 30
21 0 5 5 8 10 8 6 0 10 -7 10 -15 0 -8 19 -27 43 -41 23 -15 54 -35 69 -46 37
-25 57 -23 69 8 18 48 -16 80 -134 124 -69 26 -124 78 -133 126 -9 47 11 110
40 129 21 14 23 19 14 49 -6 19 -8 50 -4 71 10 50 82 122 128 128 18 2 38 5
44 5 5 1 23 -12 40 -29z m-151 -979 c3 -6 -1 -7 -9 -4 -18 7 -21 14 -7 14 6 0
13 -4 16 -10z"/>
<path d="M5765 8969 c-10 -15 3 -25 16 -12 7 7 7 13 1 17 -6 3 -14 1 -17 -5z"/>
<path d="M5705 8950 c3 -5 10 -10 16 -10 5 0 9 5 9 10 0 6 -7 10 -16 10 -8 0
-12 -4 -9 -10z"/>
<path d="M5836 8948 c3 -5 10 -6 15 -3 13 9 11 12 -6 12 -8 0 -12 -4 -9 -9z"/>
<path d="M5895 8950 c-3 -6 1 -7 9 -4 18 7 21 14 7 14 -6 0 -13 -4 -16 -10z"/>
<path d="M5748 8938 c5 -5 16 -8 23 -6 8 3 3 7 -10 11 -17 4 -21 3 -13 -5z"/>
<path d="M5687 8926 c-4 -10 -5 -21 -2 -24 9 -9 17 6 13 25 -3 17 -4 17 -11
-1z"/>
<path d="M6079 8923 c-13 -17 -13 -17 6 -3 11 8 22 16 24 17 2 2 0 3 -6 3 -6
0 -17 -8 -24 -17z"/>
<path d="M6000 8920 c-9 -6 -10 -10 -3 -10 6 0 15 5 18 10 8 12 4 12 -15 0z"/>
<path d="M6140 8915 c-11 -13 -10 -14 4 -9 9 3 16 10 16 15 0 13 -6 11 -20 -6z"/>
<path d="M6187 8915 c2 -7 13 -11 24 -8 25 7 24 10 -5 15 -16 3 -23 1 -19 -7z"/>
<path d="M6270 8910 c-8 -5 -10 -10 -5 -10 6 0 17 5 25 10 8 5 11 10 5 10 -5
0 -17 -5 -25 -10z"/>
<path d="M6346 8775 c-3 -8 -1 -15 4 -15 6 0 10 7 10 15 0 8 -2 15 -4 15 -2 0
-6 -7 -10 -15z"/>
<path d="M6163 8703 c-7 -2 -13 -9 -13 -15 0 -7 5 -6 14 1 11 9 15 9 18 -1 3
-8 7 -6 11 5 6 17 -5 21 -30 10z"/>
<path d="M5790 8046 c0 -2 8 -10 18 -17 15 -13 16 -12 3 4 -13 16 -21 21 -21
13z"/>
<path d="M5786 7973 c-6 -14 -5 -15 5 -6 7 7 10 15 7 18 -3 3 -9 -2 -12 -12z"/>
<path d="M5733 7943 c-18 -7 -16 -23 3 -23 8 0 13 4 10 9 -4 5 0 12 6 14 7 3
9 5 3 5 -5 0 -16 -2 -22 -5z"/>
<path d="M5750 7880 c0 -5 5 -10 11 -10 5 0 7 5 4 10 -3 6 -8 10 -11 10 -2 0
-4 -4 -4 -10z"/>
<path d="M5345 7760 c3 -5 11 -10 16 -10 6 0 7 5 4 10 -3 6 -11 10 -16 10 -6
0 -7 -4 -4 -10z"/>
<path d="M5724 7565 c-4 -8 -10 -12 -15 -9 -5 3 -9 1 -9 -4 0 -6 8 -13 17 -16
10 -4 14 -4 11 0 -4 4 -3 15 3 25 5 11 7 19 4 19 -3 0 -8 -7 -11 -15z"/>
<path d="M5668 7563 c7 -3 16 -2 19 1 4 3 -2 6 -13 5 -11 0 -14 -3 -6 -6z"/>
<path d="M5669 7520 c-13 -14 -13 -18 -1 -29 7 -7 16 -10 20 -6 3 3 0 10 -7
14 -10 7 -11 9 -1 13 7 2 11 8 9 14 -2 5 -11 3 -20 -6z"/>
<path d="M5490 7520 c0 -5 5 -10 10 -10 6 0 10 5 10 10 0 6 -4 10 -10 10 -5 0
-10 -4 -10 -10z"/>
<path d="M5630 7410 c8 -5 20 -10 25 -10 6 0 3 5 -5 10 -8 5 -19 10 -25 10 -5
0 -3 -5 5 -10z"/>
<path d="M5570 7392 c0 -18 43 -32 52 -18 11 16 10 26 -3 26 -5 0 -7 -4 -4
-10 9 -14 -19 -12 -33 2 -9 9 -12 9 -12 0z"/>
<path d="M5946 7295 c4 -8 11 -15 16 -15 6 0 5 6 -2 15 -7 8 -14 15 -16 15 -2
0 -1 -7 2 -15z"/>
<path d="M8812 5023 c-36 -14 -42 -56 -42 -308 l0 -246 25 -24 c16 -17 35 -25
60 -25 25 0 44 8 60 25 l25 24 0 256 0 256 -25 24 c-23 24 -69 32 -103 18z"/>
<path d="M9290 4895 l0 -115 51 0 c28 0 59 5 69 10 27 14 44 79 36 134 -9 60
-41 86 -107 86 l-49 0 0 -115z"/>
<path d="M6080 4885 l0 -115 60 0 c54 0 61 3 77 27 13 19 18 47 18 91 0 58 -3
67 -28 88 -22 18 -40 24 -78 24 l-49 0 0 -115z"/>
<path d="M6191 3734 c0 -11 3 -14 6 -6 3 7 2 16 -1 19 -3 4 -6 -2 -5 -13z"/>
<path d="M6192 3680 c0 -14 2 -19 5 -12 2 6 2 18 0 25 -3 6 -5 1 -5 -13z"/>
<path d="M6190 3548 c0 -23 -3 -38 -7 -35 -10 11 -33 -14 -33 -37 0 -13 3 -17
8 -9 5 8 13 9 22 3 8 -6 10 -10 4 -10 -16 0 -13 -28 4 -35 10 -4 12 0 8 11 -4
9 -1 23 5 30 6 8 7 14 2 14 -5 0 -7 24 -5 55 2 30 1 55 -2 55 -3 0 -6 -19 -6
-42z m-10 -48 c0 -5 -5 -10 -11 -10 -5 0 -7 5 -4 10 3 6 8 10 11 10 2 0 4 -4
4 -10z"/>
<path d="M6152 3365 c1 -85 1 -87 8 -32 4 31 4 72 0 90 -6 22 -8 5 -8 -58z"/>
<path d="M6182 3380 c0 -14 2 -19 5 -12 2 6 2 18 0 25 -3 6 -5 1 -5 -13z"/>
<path d="M6040 3384 c0 -14 4 -23 9 -20 5 3 7 15 4 26 -7 28 -13 25 -13 -6z"/>
<path d="M6046 3313 c-4 -5 -13 -8 -19 -8 -7 0 -13 -10 -13 -22 -2 -32 13 -29
31 7 15 30 16 37 1 23z"/>
<path d="M5971 3183 c-10 -26 -10 -27 4 -9 8 11 15 23 15 28 0 15 -7 8 -19
-19z"/>
<path d="M5981 3103 c-1 -17 16 -25 25 -12 4 7 3 9 -4 5 -5 -3 -13 0 -15 6 -4
9 -6 10 -6 1z"/>
<path d="M5995 3060 c-4 -6 -1 -9 7 -8 7 2 13 -5 13 -14 0 -10 5 -21 10 -26
12 -12 94 -22 99 -14 4 6 -13 10 -66 15 -32 3 -6 17 35 19 l42 1 -39 4 c-22 3
-49 11 -60 19 -24 17 -33 18 -41 4z"/>
<path d="M6260 3050 c-9 -6 -10 -10 -3 -10 6 0 15 5 18 10 8 12 4 12 -15 0z"/>
<path d="M6213 3036 c0 -8 6 -12 14 -9 7 3 13 9 13 14 0 5 -6 9 -13 9 -8 0
-14 -6 -14 -14z"/>
<path d="M6155 3020 c-3 -5 -1 -10 4 -10 6 0 11 5 11 10 0 6 -2 10 -4 10 -3 0
-8 -4 -11 -10z"/>
<path d="M831 3316 c-12 -15 -35 -130 -46 -240 l-8 -69 47 32 c59 41 75 73 82
165 9 100 2 126 -35 126 -16 0 -34 -6 -40 -14z"/>
<path d="M516 1279 c-18 -22 -26 -42 -26 -70 0 -44 21 -69 85 -104 l37 -19 24
29 c13 17 24 35 24 42 0 6 -22 27 -48 47 -44 32 -48 38 -44 70 5 46 -16 48
-52 5z"/>
<path d="M436 1054 c-12 -32 -5 -55 29 -92 32 -34 34 -35 35 -14 0 13 5 33 11
45 10 18 8 25 -22 49 -38 32 -45 34 -53 12z"/>
<path d="M533 205 c-33 -14 -33 -15 -33 -84 0 -38 4 -81 10 -95 l10 -26 129 0
c123 0 130 1 136 21 27 84 -88 200 -196 199 -13 -1 -39 -7 -56 -15z"/>
</g>
</svg>
